<?xml version="1.0" standalone="no"?>
<!DOCTYPE svg PUBLIC "-//W3C//DTD SVG 20010904//EN"
 "http://www.w3.org/TR/2001/REC-SVG-20010904/DTD/svg10.dtd">
<svg version="1.0" xmlns="http://www.w3.org/2000/svg"
 width="260.000000pt" height="260.000000pt" viewBox="0 0 260.000000 260.000000"
 preserveAspectRatio="xMidYMid meet">
<metadata>
Created by potrace 1.14, written by Peter Selinger 2001-2017
</metadata>
<g transform="translate(0.000000,260.000000) scale(0.100000,-0.100000)"
fill="#000000" stroke="none">
<path d="M1748 1645 c-2 -1 -25 -5 -52 -9 -96 -11 -204 -83 -245 -163 -80
-158 -43 -363 81 -453 60 -44 138 -64 236 -63 89 2 191 26 193 46 0 7 1 80 2
162 l0 150 -111 2 -112 1 0 -34 c0 -32 2 -34 38 -35 20 -1 51 -1 68 -1 l31 1
0 -97 c1 -53 -3 -102 -8 -108 -13 -16 -150 -17 -199 -3 -55 17 -124 79 -145
131 -10 24 -19 73 -21 111 -5 120 34 202 124 254 40 24 59 28 134 30 48 1 102
-3 119 -9 34 -12 44 -6 54 33 6 25 4 27 -42 38 -46 11 -139 21 -145 16z"/>
<path d="M119 1628 c0 -7 -2 -20 -3 -28 -2 -8 -7 -64 -10 -125 -4 -60 -9 -128
-11 -150 -2 -22 -6 -83 -10 -135 -3 -52 -8 -124 -11 -160 l-6 -66 41 -2 c23
-2 41 1 42 5 4 34 8 85 14 193 4 69 9 141 10 160 2 19 3 77 4 129 1 90 7 111
16 60 2 -13 43 -141 91 -284 l86 -261 34 0 c27 0 35 5 43 26 31 82 161 452
172 488 7 23 15 42 18 42 3 0 7 -26 7 -57 2 -70 15 -326 19 -368 1 -16 3 -54
4 -83 l1 -53 45 2 44 3 -4 45 c-2 25 -7 98 -10 161 -3 63 -8 135 -10 160 -2
25 -7 101 -11 170 -3 69 -8 127 -11 130 -2 3 -29 6 -58 7 -48 1 -55 -1 -60
-20 -8 -28 -54 -156 -65 -182 -8 -17 -47 -129 -90 -255 -6 -19 -14 -46 -16
-60 -3 -13 -7 -26 -9 -28 -2 -2 -13 29 -25 70 -19 63 -49 153 -141 419 l-20
56 -54 2 c-39 1 -55 -2 -56 -11z"/>
<path d="M1036 1449 c-74 -18 -138 -78 -161 -153 -53 -173 40 -332 199 -341
100 -5 188 42 231 126 23 44 31 156 15 213 -15 55 -70 122 -115 141 -46 19
-122 25 -169 14z m130 -78 c17 -11 41 -40 54 -66 30 -62 25 -167 -11 -219 -55
-81 -155 -89 -216 -18 -69 81 -53 252 29 302 42 25 103 26 144 1z"/>
<path d="M2219 1444 c-88 -26 -148 -110 -156 -218 -13 -160 80 -269 227 -270
145 0 240 99 242 253 1 174 -146 285 -313 235z m141 -72 c55 -27 75 -73 75
-168 0 -69 -3 -86 -25 -116 -46 -69 -121 -88 -185 -48 -49 30 -70 81 -70 170
0 61 4 82 23 113 41 65 112 85 182 49z"/>
</g>
</svg>
